<svg id="Layer_1" data-name="Layer 1" xmlns="http://www.w3.org/2000/svg" viewBox="0 0 100 100"><path d="M93.45,98.73,70.84,79.38c.93,3.11,1.7,5.66,2.5,8.33-.64,0-1.17.11-1.7.11q-26.65,0-53.3,0c-5.16,0-8.77-2.54-10-7A9.88,9.88,0,0,1,8,78.11Q8,46.67,8,15.24A9.4,9.4,0,0,1,17.37,5.6Q50.69,5.51,84,5.6a9.71,9.71,0,0,1,9.44,9.69q0,40.8,0,81.61ZM32.53,33.23l-.29-.71,10.94-4.71c-.14-.11-.25-.26-.36-.26a24.31,24.31,0,0,0-13.1,4.66,3.18,3.18,0,0,0-.86,1.14,58.14,58.14,0,0,0-6.61,24.87,4.92,4.92,0,0,0,1.23,3.07c3.32,3.76,7.8,5.09,12.61,5.53a1.69,1.69,0,0,0,1.24-.51c.92-1,1.74-2.13,2.65-3.28a43,43,0,0,1-4-1.92,42.22,42.22,0,0,1-3.44-2.53l.23-.52c12.14,5.37,24.25,7.15,36.3-.45l.22.77L61.4,63c1.37,1.35,1.88,3.89,4.82,3.49A21.2,21.2,0,0,0,78.31,61a3.9,3.9,0,0,0,1.3-3.48,71.82,71.82,0,0,0-5-20.69A12,12,0,0,0,67,29.47a45.79,45.79,0,0,0-5.36-1.6,14.84,14.84,0,0,0-3.13,0l0,.3,9.91,4.53-.19.67A44.16,44.16,0,0,0,32.53,33.23Z"/><path d="M46.76,50a5.24,5.24,0,0,1-5.14,5.18,5.18,5.18,0,0,1-4.86-5.41,4.93,4.93,0,0,1,5.2-5A5,5,0,0,1,46.76,50Z"/><path d="M59.82,44.79a5,5,0,0,1,4.87,5.3,5,5,0,1,1-10-.22A5.06,5.06,0,0,1,59.82,44.79Z"/></svg>