<?xml version="1.0" encoding="utf-8"?>
<!-- Generator: Adobe Illustrator 26.0.1, SVG Export Plug-In . SVG Version: 6.00 Build 0)  -->
<svg version="1.1" id="Layer_1" xmlns="http://www.w3.org/2000/svg" xmlns:xlink="http://www.w3.org/1999/xlink" x="0px" y="0px"
	 viewBox="0 0 94.9 88.4" style="enable-background:new 0 0 94.9 88.4;" xml:space="preserve">
<style type="text/css">
	.st0{fill:#FFFFFF;}
</style>
<g id="Layer_1_00000163041672582742624320000003494080669620513461_">
	<path class="st0" d="M78.3,47.8c0-0.5-0.2-0.9-0.6-1.2l-10.5-7.2c-0.5-0.3-1.1-0.3-1.6,0c-0.5,0.3-0.7,0.9-0.6,1.5l2.3,12.5
		c0.1,0.4,0.4,0.8,0.8,1c0.4,0.2,0.9,0.2,1.3-0.1l2.5-1.6l4.2,6.5c0.6,0.9,1.9,1.2,2.8,0.6c0.9-0.6,1.2-1.9,0.6-2.8l-4.2-6.5
		l2.5-1.6C78.1,48.7,78.3,48.3,78.3,47.8z"/>
	<path class="st0" d="M89.8,16.4H31.1c-2.8,0-5.1,2.3-5.1,5.1v19.7c0.7,0.2,1.3,0.4,2,0.7c1.5-0.5,3-1.1,4.5-1.5v-9.1h55.7v36.1
		c0,0.2-0.1,0.4-0.3,0.4c0,0,0,0-0.1,0H61.6v6.6h28.2c2.8,0,5.1-2.3,5.1-5.1V21.5C94.9,18.7,92.6,16.5,89.8,16.4z M34.4,26.1
		c-1.2,0-2.2-1-2.2-2.2s1-2.2,2.2-2.2s2.2,1,2.2,2.2C36.6,25.2,35.6,26.1,34.4,26.1z M41.1,26.1c-1.2,0-2.2-1-2.2-2.2s1-2.2,2.2-2.2
		s2.2,1,2.2,2.2C43.3,25.2,42.3,26.1,41.1,26.1z M47.8,26.1c-1.2,0-2.2-1-2.2-2.2s1-2.2,2.2-2.2s2.2,1,2.2,2.2
		C50,25.1,49,26.1,47.8,26.1z"/>
	<path class="st0" d="M54.6,47.5c-0.7,0-1.4,0-2.1,0.1h-0.1v-2.7c0-0.9-0.7-1.6-1.6-1.6c0,0,0,0,0,0c-7.8,0-15.5,1.5-22.7,4.5
		c-7.2-3-14.9-4.5-22.7-4.5c-0.9,0-1.6,0.7-1.6,1.6c0,0,0,0,0,0v2.7H3.7c-0.7,0-1.4-0.1-2.1-0.1c-0.9,0-1.6,0.7-1.6,1.6c0,0,0,0,0,0
		v32.3C0,82.3,0.7,83,1.6,83c0,0,0,0,0,0c8.9,0,17.7,1.8,25.9,5.3c0.4,0.1,0.8,0.1,1.2,0c8.2-3.5,17-5.3,25.9-5.3
		c0.9,0,1.6-0.7,1.6-1.6c0,0,0,0,0,0V49.1C56.2,48.3,55.5,47.6,54.6,47.5C54.6,47.5,54.6,47.5,54.6,47.5z M26.5,81.1
		c-6.2-2.4-12.8-3.7-19.5-3.9V46.5c6.7,0.2,13.3,1.6,19.5,4.1V81.1z M49.2,77.2c-6.7,0.2-13.3,1.5-19.5,3.9V50.6
		c6.2-2.6,12.8-4,19.5-4.1V77.2z"/>
	<path class="st0" d="M11.3,54.5c3.4,0.4,6.8,1.1,10.1,2c0.2,0,0.3,0.1,0.5,0.1c0.7,0,1.3-0.5,1.5-1.1c0.2-0.9-0.3-1.7-1.1-2
		c-3.5-1-7.1-1.8-10.7-2.2c-0.8-0.1-1.6,0.5-1.7,1.3c0,0,0,0.1,0,0.1c0,0.4,0.1,0.8,0.3,1.2C10.5,54.2,10.9,54.4,11.3,54.5z"/>
	<path class="st0" d="M11.3,60.6c3.4,0.4,6.8,1.1,10.1,2c0.2,0,0.3,0.1,0.5,0.1c0.7,0,1.3-0.5,1.5-1.1c0.2-0.9-0.3-1.7-1.1-2
		c-3.5-1-7.1-1.8-10.7-2.2c-0.9-0.1-1.7,0.5-1.8,1.4c0,0,0,0,0,0c0,0.4,0.1,0.8,0.3,1.2C10.4,60.4,10.8,60.6,11.3,60.6z"/>
	<path class="st0" d="M11.3,66.7c3.4,0.4,6.8,1.1,10.1,2c0.2,0,0.3,0.1,0.5,0.1c0.7,0,1.3-0.5,1.5-1.1c0.2-0.9-0.3-1.7-1.1-2
		c-3.5-1-7.1-1.8-10.7-2.2c-0.8-0.1-1.6,0.5-1.7,1.3c0,0,0,0.1,0,0.1c0,0.4,0.1,0.8,0.3,1.2C10.4,66.5,10.9,66.7,11.3,66.7z"/>
	<path class="st0" d="M11.3,72.9c3.4,0.4,6.8,1.1,10.1,2c0.2,0,0.3,0.1,0.5,0.1c0.7,0,1.3-0.5,1.5-1.1c0.2-0.9-0.3-1.7-1.1-2
		c-3.5-1-7.1-1.8-10.7-2.2c-0.9-0.1-1.7,0.5-1.8,1.4c0,0,0,0,0,0c0,0.4,0.1,0.8,0.3,1.2C10.5,72.6,10.9,72.8,11.3,72.9z"/>
	<path class="st0" d="M34.2,56.6c0.2,0,0.3,0,0.5-0.1c3.3-1,6.7-1.7,10.1-2c0.4-0.1,0.8-0.3,1.1-0.6c0.3-0.3,0.4-0.8,0.3-1.2
		c-0.1-0.8-0.8-1.5-1.7-1.4c0,0-0.1,0-0.1,0c-3.6,0.4-7.2,1.1-10.7,2.2c-0.4,0.1-0.7,0.4-0.9,0.8c-0.2,0.4-0.2,0.8-0.1,1.2
		C32.9,56.2,33.5,56.6,34.2,56.6z"/>
	<path class="st0" d="M44.5,57.5L44.5,57.5c-3.6,0.4-7.2,1.1-10.7,2.2c-0.8,0.3-1.3,1.2-1.1,2c0.2,0.7,0.8,1.1,1.5,1.1
		c0.2,0,0.3,0,0.5-0.1c3.3-1,6.7-1.7,10.1-2c0.4-0.1,0.8-0.3,1.1-0.6c0.3-0.3,0.4-0.8,0.3-1.2C46.1,58.1,45.4,57.5,44.5,57.5z"/>
	<path class="st0" d="M34.2,68.9c0.2,0,0.3,0,0.5-0.1c3.3-1,6.7-1.7,10.1-2c0.4,0,0.9-0.2,1.1-0.6c0.3-0.3,0.4-0.8,0.3-1.2
		c0-0.8-0.8-1.5-1.6-1.4c0,0-0.1,0-0.1,0l0,0c-3.6,0.4-7.2,1.1-10.7,2.2c-0.4,0.1-0.7,0.4-0.9,0.8c-0.2,0.4-0.2,0.8-0.1,1.2
		C32.9,68.5,33.5,69,34.2,68.9z"/>
	<path class="st0" d="M44.5,69.7L44.5,69.7c-3.6,0.4-7.2,1.1-10.7,2.2c-0.8,0.3-1.3,1.2-1.1,2c0.2,0.7,0.8,1.1,1.5,1.1
		c0.2,0,0.3,0,0.5-0.1c3.3-1,6.7-1.7,10.1-2c0.4-0.1,0.8-0.3,1.1-0.6c0.3-0.3,0.4-0.8,0.3-1.2C46.1,70.3,45.4,69.7,44.5,69.7z"/>
</g>
</svg>
