<svg id="Layer_1" data-name="Layer 1" xmlns="http://www.w3.org/2000/svg" viewBox="0 0 100 100"><path d="M5.33,50.7q0-18.89,0-37.78A6.37,6.37,0,0,1,8.4,7.07a6.77,6.77,0,0,1,3.68-1H54.5q16.78,0,33.57,0a6.43,6.43,0,0,1,6.52,5.35A8.73,8.73,0,0,1,94.68,13V88.49c0,4.23-2.72,7-6.93,7H12a6.48,6.48,0,0,1-6.61-5.35,11,11,0,0,1-.1-1.82Q5.32,69.49,5.33,50.7Zm47.53-5.21c0-.44,0-.69,0-.93,0-1.38,0-2.77,0-4.15,0-.67-.2-.88-.87-.88-3.63,0-7.26,0-10.89,0-.94,0-.94,0-.94.93q0,20.43,0,40.86c0,.72.23.91.93.9,3.79,0,7.58,0,11.37,0,1,0,1,0,1-1,0-6.72,0-13.44,0-20.15a30.45,30.45,0,0,1,.32-4.27c.59-3.86,2.61-6.07,6.09-6.53,4.25-.57,7.28.85,8.07,5.74a28.17,28.17,0,0,1,.35,4.4c0,7,0,14,0,20.92,0,.68.2.89.87.88,3.82,0,7.63,0,11.45,0,1,0,1,0,1-1q0-11.82-.06-23.66A30.56,30.56,0,0,0,80,47.3a12,12,0,0,0-8.11-7.92,20,20,0,0,0-7.57-.8,13.76,13.76,0,0,0-11,6.33C53.21,45.05,53.09,45.19,52.86,45.49ZM31.79,60.89c0-6.81,0-13.62,0-20.43,0-.69-.18-.93-.9-.93q-5.76,0-11.51,0c-.7,0-.86.25-.85.9q0,20.46,0,40.93c0,.74.25.89.93.88,3.79,0,7.58,0,11.37,0,1,0,1,0,1-1ZM25.19,33.8a7.73,7.73,0,1,0,0-15.46,7.73,7.73,0,0,0,0,15.46Z"/></svg>