<?xml version="1.0" encoding="utf-8"?>
<!-- Generator: Adobe Illustrator 26.0.1, SVG Export Plug-In . SVG Version: 6.00 Build 0)  -->
<svg version="1.1" id="Layer_1" xmlns="http://www.w3.org/2000/svg" xmlns:xlink="http://www.w3.org/1999/xlink" x="0px" y="0px"
	 viewBox="0 0 50 46.6" style="enable-background:new 0 0 50 46.6;" xml:space="preserve">
<style type="text/css">
	.st0{fill:#FFFFFF;}
</style>
<path class="st0" d="M35.7,31.7c-1.9,0-3.6,0.8-4.8,2.1l-10.4-6.4c0.3-0.7,0.4-1.5,0.4-2.3s-0.1-1.6-0.4-2.3l10.4-6.4
	c1.2,1.3,2.9,2.1,4.8,2.1c3.7,0,6.7-3,6.7-6.7s-3-6.7-6.7-6.7s-6.7,3-6.7,6.7c0,0.8,0.1,1.6,0.4,2.3L19,20.5
	c-1.2-1.3-2.9-2.1-4.8-2.1c-3.7,0-6.7,3-6.7,6.7s3,6.7,6.7,6.7c1.9,0,3.6-0.8,4.8-2.1L29.5,36c-0.3,0.7-0.4,1.5-0.4,2.3
	c0,3.7,3,6.7,6.7,6.7s6.7-3,6.7-6.7C42.4,34.6,39.4,31.7,35.7,31.7z"/>
</svg>
