<svg id="Layer_1" data-name="Layer 1" xmlns="http://www.w3.org/2000/svg" viewBox="0 0 100 100"><path d="M6.17,86.25V83.67q0-30.35,0-60.69a10.16,10.16,0,0,1,.66-3.39c1.63-4.33,3.37-8.6,5-12.92.36-.93.74-1.43,1.88-1.43q40,0,80,0c.33,0,.66.06,1.19.11V7.5q0,26.3,0,52.59a4.21,4.21,0,0,1-1.31,3.28c-7.19,7.11-14.29,14.32-21.51,21.4a5.55,5.55,0,0,1-3.4,1.41c-4.71.16-9.43,0-14.13.13a5.36,5.36,0,0,0-3.24,1.33C48.09,90.72,45,94,41.76,97.12a4.1,4.1,0,0,1-2.48,1c-3.46.11-6.91,0-10.69,0,0-3.22-.11-6.32,0-9.4.1-2-.66-2.62-2.62-2.59-5.68.1-11.36,0-17,0Zm32.24-2.06c1-.87,1.49-1.28,2-1.75,2.94-2.93,5.93-5.83,8.79-8.85a4.27,4.27,0,0,1,3.45-1.41c6.1.07,12.2.1,18.3,0a5.17,5.17,0,0,0,3.21-1.31c3.92-3.72,7.73-7.56,11.46-11.47a4.82,4.82,0,0,0,1.26-3c.08-13.59,0-27.17,0-40.75,0-.73-.07-1.46-.11-2.16h-67c0,.48-.12.82-.12,1.15q0,28,0,55.93c0,1.45.6,1.73,1.87,1.71,3.88,0,7.76,0,11.64,0h5.25Z"/><path d="M42.41,53.52V30h7.81V53.52Z"/><path d="M72.39,29.93V53.51H64.91V29.93Z"/></svg>