<svg id="Layer_1" data-name="Layer 1" xmlns="http://www.w3.org/2000/svg" viewBox="0 0 100 100"><path d="M50.27,83.93c-4,0-8,0-12,0-3.59,0-7.19-.17-10.77-.34a113.06,113.06,0,0,1-14-1.24,12.06,12.06,0,0,1-10-9.87A93.12,93.12,0,0,1,2.16,61.94q-.44-7.11-.41-14.26A118.1,118.1,0,0,1,3,30.26a15.11,15.11,0,0,1,2.61-7.2,11.79,11.79,0,0,1,8.29-4.93c4.51-.49,9-.93,13.58-1.12q11.14-.45,22.31-.51c5.8,0,11.61.16,17.42.31,3.4.09,6.8.23,10.2.48a88.76,88.76,0,0,1,9.22,1.05c5.55,1,8.9,4.5,9.93,10a82.86,82.86,0,0,1,1.27,10.17c.3,4.79.44,9.6.42,14.4a110.65,110.65,0,0,1-1.37,17.9,15.6,15.6,0,0,1-2.23,6.41,11.66,11.66,0,0,1-8.49,5.21c-4.44.5-8.9.93-13.37,1.12-7.5.32-15,.43-22.52.63Zm-9.9-19.15L65.54,50.32,40.37,35.79Z"/></svg>